<svg xmlns="http://www.w3.org/2000/svg" width="220" height="220" viewBox="0 0 220 220">
  <defs>
    <linearGradient id="stroke" x1="0%" y1="0%" x2="100%" y2="100%">
      <stop offset="0%" stop-color="#fbeab0"/>
      <stop offset="50%" stop-color="#dfb44b"/>
      <stop offset="100%" stop-color="#c59023"/>
    </linearGradient>
  </defs>
  <rect width="220" height="220" fill="#081f15"/>
  <g opacity="0.35" fill="none" stroke="url(#stroke)" stroke-width="4" stroke-linecap="round">
    <path d="M110 10c14 50 14 110 0 200"/>
    <path d="M110 50C75 80 45 95 10 90"/>
    <path d="M110 80C70 110 40 130 20 160"/>
    <path d="M110 115c-35 20-60 55-80 95"/>
    <path d="M110 50c35 30 65 45 100 40"/>
    <path d="M110 80c40 30 70 50 90 80"/>
    <path d="M110 115c35 20 60 55 80 95"/>
    <circle cx="110" cy="40" r="15"/>
  </g>
</svg>
